<svg xmlns="http://www.w3.org/2000/svg" viewBox="0 0 789 624"><circle cx="204.5" cy="163.5" r="163" style="fill:#b3b3b3"/><path d="M204.5,1A162.49,162.49,0,0,1,319.4,278.4,162.49,162.49,0,1,1,89.6,48.6,161.39,161.39,0,0,1,204.5,1m0-1A163.5,163.5,0,1,0,368,163.5,163.5,163.5,0,0,0,204.5,0Z" style="fill:#fff"/><circle cx="592.5" cy="163.5" r="163" style="fill:#8cc63f"/><path d="M592.5,1A162.49,162.49,0,0,1,707.4,278.4,162.49,162.49,0,1,1,477.6,48.6,161.39,161.39,0,0,1,592.5,1m0-1A163.5,163.5,0,1,0,756,163.5,163.5,163.5,0,0,0,592.5,0Z" style="fill:#fff"/><circle cx="396.5" cy="460.5" r="163" style="fill:#b3b3b3"/><path d="M396.5,298a162.52,162.52,0,1,1-114.9,47.6A161.39,161.39,0,0,1,396.5,298m0-1A163.5,163.5,0,1,0,560,460.5,163.5,163.5,0,0,0,396.5,297Z" style="fill:#fff"/><rect y="118" width="393" height="87" style="fill:#fff"/><rect x="396" y="118" width="393" height="87" style="fill:#fff"/><rect x="200" y="417" width="393" height="87" style="fill:#fff"/><text transform="translate(69.15 187.95)" style="font-size:86.34628295898438px;font-family:MyriadPro-Regular, Myriad Pro">MODEL</text><text transform="translate(502.15 187.95)" style="font-size:86.34628295898438px;font-family:MyriadPro-Regular, Myriad Pro">VI<tspan x="68.82" y="0" style="letter-spacing:0.008985666547088688em">E</tspan><tspan x="112.08" y="0">W</tspan></text><text transform="translate(254.15 477.79)" style="font-size:50.98146057128906px;font-family:MyriadPro-Regular, Myriad Pro"><tspan style="letter-spacing:-0.020994151364167893em">C</tspan><tspan x="28.5" y="0">ONT</tspan><tspan x="122.51" y="0" style="letter-spacing:0.002988218624826817em">R</tspan><tspan x="150.09" y="0">OLLER</tspan></text></svg>